# xmcd
#
# Track frame offsets: 
#        150
#        17851
#        34945
#        55831
#        70435
#        87773
#        104051
#        122379
#        147143
#        161158
#        178929
#        200165
#
# Disc length: 2834 seconds
#
# Revision: 3
# Processed by: cddbd v1.5.2PL0 Copyright (c) Steve Scherf et al.
# Submitted via: ExactAudioCopy v0.99pb5
#
DISCID=b10b100c
DTITLE=Battleaxe - Heavy Metal Sanctuary
DYEAR=2014
DGENRE=Heavy Metal
TTITLE0=Heavy Metal Sanctuary
TTITLE1=Shock And Awe
TTITLE2=Hail To The King
TTITLE3=Rebel With A Cause
TTITLE4=Give It More
TTITLE5=Too Hot For Hell
TTITLE6=Revolution
TTITLE7=A Prelude To Battle: The legions Unite
TTITLE8=Spirits Of The Fallen
TTITLE9=Devil Calls
TTITLE10=Kingdom Come
TTITLE11=Romeo
EXTD=
EXTT0=
EXTT1=
EXTT2=
EXTT3=
EXTT4=
EXTT5=
EXTT6=
EXTT7=
EXTT8=
EXTT9=
EXTT10=
EXTT11=
PLAYORDER=
